<?xml version="1.0" encoding="UTF-8"?>
<svg width="64" height="64" viewBox="0 0 64 64" xmlns="http://www.w3.org/2000/svg">
  <!-- Blue circular background -->
  <circle cx="32" cy="32" r="32" fill="#2CCAF2"/>
  
  <!-- SDS letters - made very bold and large -->
  <g fill="#002A36" transform="translate(4, 20)" stroke="#002A36" stroke-width="1">
    <!-- S letter -->
    <path d="M8,18c0,2,2,4,6,4c4,0,6-1,6-3c0-6-12-2-12-8c0-2,2-4,6-4c3,0,5,1,6,3h-4c0-1-1-1-2-1s-2,0-2,1c0,5,12,2,12,8c0,2-2,4-6,4c-4,0-6-2-6-4H8z"/>
    
    <!-- D letter -->
    <path d="M22,4v18h5c4,0,7-2,7-9s-3-9-7-9H22zM26,18V8h1c2,0,3,1,3,5s-1,5-3,5H26z"/>
    
    <!-- S letter -->
    <path d="M38,18c0,2,2,4,6,4c4,0,6-1,6-3c0-6-12-2-12-8c0-2,2-4,6-4c3,0,5,1,6,3h-4c0-1-1-1-2-1s-2,0-2,1c0,5,12,2,12,8c0,2-2,4-6,4c-4,0-6-2-6-4H38z"/>
  </g>
</svg> 