<?xml version="1.0" encoding="UTF-8" standalone="no" ?>
<!DOCTYPE svg PUBLIC "-//W3C//DTD SVG 1.1//EN" "http://www.w3.org/Graphics/SVG/1.1/DTD/svg11.dtd">
<svg xmlns="http://www.w3.org/2000/svg" xmlns:xlink="http://www.w3.org/1999/xlink" version="1.1" width="1280" height="1024" viewBox="320 170 640 640" xml:space="preserve">
<desc>Created with Fabric.js 5.3.0</desc>
<defs>
</defs>
<g transform="matrix(1 0 0 1 640 512)" id="background-logo"  >
<rect style="stroke: none; stroke-width: 0; stroke-dasharray: none; stroke-linecap: butt; stroke-dashoffset: 0; stroke-linejoin: miter; stroke-miterlimit: 4; fill: rgb(255,255,255); fill-opacity: 0; fill-rule: nonzero; opacity: 1;"  paint-order="stroke"  x="-640" y="-512" rx="0" ry="0" width="1280" height="1024" />
</g>
<g transform="matrix(1.9211538461538462 0 0 1.9211538461538462 640 512)" id="logo-logo"  >
<g style=""  paint-order="stroke"   >
		<g transform="matrix(0.6134063279828073 0.613406327982807 -0.613406327982807 0.6134063279828073 31.183707003108907 17.041571379377956)"  >
<g style=""  paint-order="stroke"   >
		<g transform="matrix(1 0 0 1 0 0)"  >
<linearGradient id="SVGID_2_14065" gradientUnits="userSpaceOnUse" gradientTransform="matrix(1 0 0 1 -0.00000743157123395122 0.00000191048098940882)"  x1="0" y1="0" x2="0" y2="250">
<stop offset="0%" style="stop-color:rgb(92,214,245);stop-opacity: 1"/>
<stop offset="100%" style="stop-color:rgb(15,191,235);stop-opacity: 1"/>
</linearGradient>
<path style="stroke: none; stroke-width: 1; stroke-dasharray: none; stroke-linecap: butt; stroke-dashoffset: 0; stroke-linejoin: miter; stroke-miterlimit: 4; fill: url(#SVGID_2_14065); fill-rule: nonzero; opacity: 1;"  paint-order="stroke"  transform=" translate(-97.78943548369143, -124.99999661217743)" d="M 25.605 200.24879 C 33.77024 201.95806000000002 40.9079 204.91467 48.58582 206.76181000000003 C 49.56689 207.12112000000002 51.899609999999996 207.68925000000002 52.83692 208.03215000000003 C 53.38698 208.17546000000004 59.334179999999996 209.23271000000003 60.11031 209.42235000000002 C 62.04582 209.92409000000004 64.03932999999999 209.88284000000002 66.01226 210.12471000000002 C 67.83525 210.32411000000002 70.18213 210.5945 71.969 210.57605 C 119.34630999999999 211.98157 160.61578 178.08002000000002 169.75516 131.69464 C 170.14951 129.5926 170.60596999999999 127.48921999999999 170.97609 125.36937999999999 C 171.16547 123.25806999999999 171.68601 117.75764 171.88031 115.71003999999999 C 171.86786 113.61076999999999 171.84509 108.11183 171.85052000000002 105.95282999999999 C 171.62355000000002 103.86607 171.07543 98.22834999999999 170.87582 96.19018999999999 C 170.46899 94.06658999999999 169.38116 88.68537999999998 168.96771 86.51311999999999 C 168.96766000000002 86.51315999999998 167.07750000000001 80.19252999999999 167.07750000000001 80.19252999999999 C 147.94144 19.61973 79.9423 -9.90114 21.35277 13.96195 C 79.71941 -17.90565 152.81479 6.99371 182.25076 66.15 C 184.45192 69.9984 186.78203000000002 76.41969 188.52029000000002 80.56029000000001 C 189.32142000000002 83.12509000000001 191.20745000000002 89.43071 191.94288000000003 91.90621000000002 C 192.43829000000002 94.32431000000001 193.78784000000002 101.05830000000002 194.28282000000004 103.57779000000002 L 195.10275000000004 111.49691000000003 L 195.49652000000003 115.47402000000002 L 195.53766000000005 119.46708000000002 C 195.67944000000006 124.22826000000002 195.45650000000003 130.81728 194.85268000000005 135.48860000000002 C 192.94982000000005 154.31259000000003 186.19970000000006 172.5491 176.44609000000005 188.69453000000001 C 174.95390000000006 190.82505 170.95860000000005 196.76069 169.48067000000006 198.83366 C 160.06644000000006 210.58694 149.00029000000006 221.41859 136.04192000000006 229.339 C 108.03685000000006 247.50581 71.80948000000006 254.26046 38.889190000000056 247.32893 C 27.652970000000057 245.18779 16.990440000000056 240.35182 7.842320000000058 233.66607000000002 C -9.620959999999943 219.90264000000002 4.635270000000057 193.88499000000002 25.60497000000006 200.24877000000004 L 25.60497000000006 200.24877000000004 L 25.605 200.24879 z" stroke-linecap="round" />
</g>
</g>
</g>
		<g transform="matrix(-0.613406327982807 -0.6134063279828071 0.6134063279828071 -0.613406327982807 -31.183707003108907 -17.041571379377928)"  >
<g style=""  paint-order="stroke"   >
		<g transform="matrix(1 0 0 1 0 0)"  >
<linearGradient id="SVGID_3_14066" gradientUnits="userSpaceOnUse" gradientTransform="matrix(1 0 0 1 -0.00000743157123395122 0.00000191048098940882)"  x1="0" y1="0" x2="0" y2="250">
<stop offset="0%" style="stop-color:rgb(97,215,245);stop-opacity: 1"/>
<stop offset="100%" style="stop-color:rgb(44,202,242);stop-opacity: 1"/>
</linearGradient>
<path style="stroke: none; stroke-width: 1; stroke-dasharray: none; stroke-linecap: butt; stroke-dashoffset: 0; stroke-linejoin: miter; stroke-miterlimit: 4; fill: url(#SVGID_3_14066); fill-rule: nonzero; opacity: 1;"  paint-order="stroke"  transform=" translate(-97.78943548369143, -124.99999661217743)" d="M 25.605 200.24879 C 33.77024 201.95806000000002 40.9079 204.91467 48.58582 206.76181000000003 C 49.56689 207.12112000000002 51.899609999999996 207.68925000000002 52.83692 208.03215000000003 C 53.38698 208.17546000000004 59.334179999999996 209.23271000000003 60.11031 209.42235000000002 C 62.04582 209.92409000000004 64.03932999999999 209.88284000000002 66.01226 210.12471000000002 C 67.83525 210.32411000000002 70.18213 210.5945 71.969 210.57605 C 119.34630999999999 211.98157 160.61578 178.08002000000002 169.75516 131.69464 C 170.14951 129.5926 170.60596999999999 127.48921999999999 170.97609 125.36937999999999 C 171.16547 123.25806999999999 171.68601 117.75764 171.88031 115.71003999999999 C 171.86786 113.61076999999999 171.84509 108.11183 171.85052000000002 105.95282999999999 C 171.62355000000002 103.86607 171.07543 98.22834999999999 170.87582 96.19018999999999 C 170.46899 94.06658999999999 169.38116 88.68537999999998 168.96771 86.51311999999999 C 168.96766000000002 86.51315999999998 167.07750000000001 80.19252999999999 167.07750000000001 80.19252999999999 C 147.94144 19.61973 79.9423 -9.90114 21.35277 13.96195 C 79.71941 -17.90565 152.81479 6.99371 182.25076 66.15 C 184.45192 69.9984 186.78203000000002 76.41969 188.52029000000002 80.56029000000001 C 189.32142000000002 83.12509000000001 191.20745000000002 89.43071 191.94288000000003 91.90621000000002 C 192.43829000000002 94.32431000000001 193.78784000000002 101.05830000000002 194.28282000000004 103.57779000000002 L 195.10275000000004 111.49691000000003 L 195.49652000000003 115.47402000000002 L 195.53766000000005 119.46708000000002 C 195.67944000000006 124.22826000000002 195.45650000000003 130.81728 194.85268000000005 135.48860000000002 C 192.94982000000005 154.31259000000003 186.19970000000006 172.5491 176.44609000000005 188.69453000000001 C 174.95390000000006 190.82505 170.95860000000005 196.76069 169.48067000000006 198.83366 C 160.06644000000006 210.58694 149.00029000000006 221.41859 136.04192000000006 229.339 C 108.03685000000006 247.50581 71.80948000000006 254.26046 38.889190000000056 247.32893 C 27.652970000000057 245.18779 16.990440000000056 240.35182 7.842320000000058 233.66607000000002 C -9.620959999999943 219.90264000000002 4.635270000000057 193.88499000000002 25.60497000000006 200.24877000000004 L 25.60497000000006 200.24877000000004 L 25.605 200.24879 z" stroke-linecap="round" />
</g>
</g>
</g>
</g>
</g>
<g transform="matrix(1.9211538461538462 0 0 1.9211538461538462 638.540774222941 503.9799180854436)" id="text-logo"  >
<g style=""  paint-order="stroke"   >
		<g transform="matrix(1 0 0 1 0 0)" id="text-logo-path-0"  >
<linearGradient id="SVGID_14067" gradientUnits="userSpaceOnUse" gradientTransform="matrix(1 0 0 1 3.530000000000001 -80.77)"  x1="265.24995000543737" y1="-19.242094527494004" x2="265.24995000543737" y2="109.757905472506">
<stop offset="18.5%" style="stop-color:rgb(255,255,255);stop-opacity: 1"/>
<stop offset="100%" style="stop-color:rgb(135,225,247);stop-opacity: 1"/>
</linearGradient>
<filter id="SVGID_14063" y="-73.41899875122641%" height="246.83799750245282%" x="-36.921456368292034%" width="173.84291273658408%" >
	<feGaussianBlur in="SourceAlpha" stdDeviation="21.877750938564773"></feGaussianBlur>
	<feOffset dx="0" dy="0" result="oBlur" ></feOffset>
	<feFlood flood-color="rgb(13,18,63)" flood-opacity="1"/>
	<feComposite in2="oBlur" operator="in" />
	<feMerge>
		<feMergeNode></feMergeNode>
		<feMergeNode in="SourceGraphic"></feMergeNode>
	</feMerge>
</filter>
<path style="stroke: rgb(2,31,38); stroke-width: 21.877750938564773; stroke-dasharray: none; stroke-linecap: butt; stroke-dashoffset: 0; stroke-linejoin: miter; stroke-miterlimit: 4; fill: url(#SVGID_14067); fill-rule: nonzero; opacity: 1;filter: url(#SVGID_14063);"  paint-order="stroke"  transform=" translate(-132.82000000000002, 39.815)" d="M 20.59 -25.14 L 3.53 -25.14 C 5.8 -7.28 16.95 1.14 41.52 1.14 C 66.55 1.14 79.75 -7.51 79.75 -22.87 C 79.75 -40.73 59.73 -44.6 43.34 -47.44 C 32.08 -49.49 22.41 -50.85 22.41 -56.77 C 22.41 -62.68 29.12 -65.98 40.16 -65.98 C 52.33 -65.98 58.93 -61.55 60.18 -54.72 L 77.25 -54.72 C 75.77 -73.83 61.43 -80.77 40.5 -80.77 C 18.09 -80.77 5.35 -72.24 5.35 -57.56 C 5.35 -38.22 25.82 -34.93 42.32 -32.42 C 53.36 -30.72 62.68 -29.24 62.68 -23.32 C 62.68 -17.29 53.92 -13.65 41.52 -13.65 C 28.33 -13.77 21.27 -17.97 20.59 -25.14 Z M 129.92 -79.64 L 96.02 -79.64 L 96.02 0 L 129.92 0 C 156.43 0 173.15 -15.59 173.15 -39.82 C 173.15 -64.05 156.43 -79.64 129.92 -79.64 Z M 113.08 -14.79 L 113.08 -64.85 L 129.92 -64.85 C 146.3 -64.85 156.08 -55.29 156.08 -39.82 C 156.08 -24.35 146.3 -14.79 129.92 -14.79 Z M 202.96 -25.14 L 185.89 -25.14 C 188.17 -7.28 199.32 1.14 223.89 1.14 C 248.92 1.14 262.11 -7.51 262.11 -22.87 C 262.11 -40.73 242.09 -44.6 225.71 -47.44 C 214.45 -49.49 204.78 -50.85 204.78 -56.77 C 204.78 -62.68 211.49 -65.98 222.52 -65.98 C 234.7 -65.98 241.29 -61.55 242.55 -54.72 L 259.61 -54.72 C 258.13 -73.83 243.8 -80.77 222.86 -80.77 C 200.45 -80.77 187.71 -72.24 187.71 -57.56 C 187.71 -38.22 208.19 -34.93 224.68 -32.42 C 235.72 -30.72 245.05 -29.24 245.05 -23.32 C 245.05 -17.29 236.29 -13.65 223.89 -13.65 C 210.69 -13.77 203.64 -17.97 202.96 -25.14 Z" stroke-linecap="round" />
</g>
</g>
</g>
</svg>